<?xml version="1.0" standalone="no"?>
<!DOCTYPE svg PUBLIC "-//W3C//DTD SVG 20010904//EN"
 "http://www.w3.org/TR/2001/REC-SVG-20010904/DTD/svg10.dtd">
<svg version="1.0" xmlns="http://www.w3.org/2000/svg"
 width="431.000000pt" height="431.000000pt" viewBox="0 0 431.000000 431.000000"
 preserveAspectRatio="xMidYMid meet">
<metadata>
Created by potrace 1.11, written by Peter Selinger 2001-2013
</metadata>
<g transform="translate(0.000000,431.000000) scale(0.100000,-0.100000)"
fill="#000000" stroke="none">
<path d="M2098 3533 l-48 -49 0 -891 c0 -490 -3 -898 -6 -906 -4 -12 -19 -11
-97 10 -51 14 -94 27 -96 29 -3 3 19 28 48 58 l52 53 -58 16 c-32 9 -77 21
-100 27 l-42 11 -3 101 -3 101 -290 78 c-159 43 -338 91 -397 106 l-108 27
-50 -49 c-42 -42 -50 -55 -50 -87 l0 -37 -47 14 -48 15 -52 -52 -53 -52 0
-301 0 -301 98 -25 97 -25 3 -102 3 -101 42 -12 c23 -6 68 -18 99 -26 l57 -16
3 -101 3 -100 397 -106 397 -106 51 51 c41 42 50 57 50 87 l0 36 47 -14 47
-14 53 52 c43 42 53 59 53 85 0 36 6 38 60 23 33 -10 36 -8 87 42 l53 52 0
833 c0 458 1 833 3 833 1 0 22 -6 47 -14 l45 -13 3 -100 3 -100 57 -16 c31 -8
76 -20 100 -27 l42 -11 0 -99 0 -98 48 -14 c26 -8 113 -32 194 -54 l148 -39 0
-105 0 -104 55 54 c44 44 55 61 55 87 0 36 6 38 60 23 33 -10 36 -8 87 42 43
42 53 59 53 85 0 38 -3 37 56 22 l46 -12 49 49 49 48 0 201 0 200 -97 27 -98
27 -52 -52 c-43 -41 -53 -58 -53 -84 0 -38 3 -37 -56 -22 -41 11 -44 14 -44
45 0 37 6 40 60 24 33 -10 36 -8 87 42 l53 52 0 105 c0 57 -3 102 -6 99 -3 -4
-46 5 -96 19 l-90 24 -52 -48 -52 -48 -8 -197 c-5 -109 -11 -198 -15 -198 -3
1 -44 11 -91 24 l-85 23 -3 98 -3 99 51 51 52 52 -49 12 c-26 7 -72 19 -100
27 l-53 15 0 103 c0 75 -3 103 -12 103 -7 0 -52 10 -100 23 l-88 23 0 101 0
102 -87 22 c-49 12 -125 33 -169 46 -145 44 -142 44 -196 -11z m-13 -2263 c13
-6 15 -9 5 -9 -8 0 -22 4 -30 9 -18 12 -2 12 25 0z m119 -31 c21 -6 36 -12 34
-14 -5 -5 -121 25 -128 32 -5 6 23 0 94 -18z"/>
</g>
</svg>
